<svg xmlns="http://www.w3.org/2000/svg" style="display: none;">
    
    <symbol id="hugeicons-user-group" viewBox="0 0 24 24">
        <path fill="currentColor" d="M12 2C6.48 2 2 6.48 2 12s4.48 10 10 10 10-4.48 10-10S17.52 2 12 2zm0 3c2.21 0 4 1.79 4 4s-1.79 4-4 4-4-1.79-4-4 1.79-4 4-4zm-7 13.7c1.47-1.14 4.02-1.7 7-1.7s5.53.56 7 1.7v.3H5v-.3z"/>
    </symbol>
    
    <symbol id="hugeicons-home" viewBox="0 0 24 24">
        <path fill="currentColor" d="M10 20v-6h4v6h5v-8h3L12 3 2 12h3v8z"/>
    </symbol>

    <symbol id="hugeicons-video" viewBox="0 0 24 24">
        <path fill="currentColor" d="M23 7l-7 5 7 5V7z"/>
        <rect x="1" y="5" width="15" height="14" rx="2" ry="2"/>
    </symbol>

    <symbol id="hugeicons-community" viewBox="0 0 24 24">
        <path fill="currentColor" d="M17 21v-2a4 4 0 0 0-4-4H5a4 4 0 0 0-4 4v2"/>
        <circle cx="9" cy="7" r="4"/>
        <path fill="currentColor" d="M23 21v-2a4 4 0 0 0-3-3.87"/>
        <path fill="currentColor" d="M16 3.13a4 4 0 0 1 0 7.75"/>
    </symbol>
    
    <symbol id="hugeicons-call" viewBox="0 0 24 24">
        <path fill="currentColor" d="M22 16.92v3a2 2 0 0 1-2.18 2 19.79 19.79 0 0 1-8.63-3.07 19.5 19.5 0 0 1-6.71-6.71 19.79 19.79 0 0 1-3.07-8.63A2 2 0 0 1 4.08 2h3a2 2 0 0 1 2 1.74 17 17 0 0 0 .66 3.6A2 2 0 0 1 8.8 8.68l-1.2 1.2a15.9 15.9 0 0 0 4.3 4.3l1.2-1.2a2 2 0 0 1 2.76-.27 17 17 0 0 0 3.6.66A2 2 0 0 1 22 16.92z"/>
    </symbol>  

    <symbol id="hugeicons-info" viewBox="0 0 24 24">
        <path fill="currentColor" d="M12 2C6.48 2 2 6.48 2 12s4.48 10 10 10 10-4.48 10-10S17.52 2 12 2zm1 15h-2v-6h2v6zm0-8h-2V7h2v2z"/>
    </symbol>

    <symbol id="hugeicons-file" viewBox="0 0 24 24">
        <path fill="currentColor" d="M14 2H6c-1.1 0-2 .9-2 2v16c0 1.1.9 2 2 2h12c1.1 0 2-.9 2-2V8l-6-6zm4 18H6V4h7v5h5v11z"/>
    </symbol>
    
    <symbol id="hugeicons-like" viewBox="0 0 24 24">
        <path fill="currentColor" d="M1 21h4V9H1v12zm22-11c0-1.1-.9-2-2-2h-6.31l.95-4.57.03-.32c0-.4-.17-.79-.46-1.07L16.5 1 11.02 6.53c-.36.36-.54.86-.54 1.4v10.07c0 1.1.9 2 2 2h8.48c.84 0 1.54-.57 1.71-1.3l1.9-8.49c.09-.45-.04-.9-.33-1.22z"/>
    </symbol>

    <symbol id="hugeicons-mic" viewBox="0 0 24 24">
        <path fill="currentColor" d="M12 14c1.66 0 2.99-1.34 2.99-3L15 5c0-1.66-1.34-3-3-3S9 3.34 9 5v6c0 1.66 1.34 3 3 3zm5.3-2.99c0 3.53-2.61 6.44-6 6.93V21h2v2H7v-2h2v-3.79c-3.39-.49-6-3.4-6-6.93h2c0 2.76 2.24 5 5 5s5-2.24 5-5h2.3z"/>
    </symbol>
    <symbol id="hugeicons-image" viewBox="0 0 24 24">
        <path fill="currentColor" d="M21 3H3c-1.1 0-2 .9-2 2v14c0 1.1.9 2 2 2h18c1.1 0 2-.9 2-2V5c0-1.1-.9-2-2-2zM5 17l3.5-4.5 2.5 3.01L14.5 11l4.5 6H5z"/>
    </symbol>
</svg>